<?xml version="1.0" standalone="no"?>
<!DOCTYPE svg PUBLIC "-//W3C//DTD SVG 20010904//EN"
 "http://www.w3.org/TR/2001/REC-SVG-20010904/DTD/svg10.dtd">
<svg version="1.0" xmlns="http://www.w3.org/2000/svg"
 width="800.000000pt" height="571.000000pt" viewBox="0 0 800.000000 571.000000"
 preserveAspectRatio="xMidYMid meet">

<g transform="translate(0.000000,571.000000) scale(0.100000,-0.100000)"
fill="#000000" stroke="none">
<path d="M3873 4923 l-2933 -3 0 -1343 c0 -738 -3 -1669 -7 -2070 l-6 -727
3071 0 3072 0 0 2075 0 2075 -132 -2 c-73 -2 -1453 -4 -3065 -5z m2945 -256
c9 -10 12 -505 12 -1832 0 -1000 -1 -1819 -2 -1820 -2 -2 -1275 -5 -2831 -7
l-2827 -3 0 25 c-4 240 2 3605 7 3616 3 9 15 19 27 24 12 5 1277 9 2812 9
2332 1 2793 -1 2802 -12z m239 -299 c-2 -13 -4 -3 -4 22 0 25 2 35 4 23 2 -13
2 -33 0 -45z m-1912 -3568 c4 -6 -769 -9 -2102 -8 -1274 2 -1813 5 -1363 8
1417 10 3459 9 3465 0z m1914 -6 c3 -2 -418 -4 -935 -3 -516 0 -930 4 -919 9
19 8 1846 2 1854 -6z"/>
</g>
</svg>
