<?xml version="1.0" encoding="UTF-8"?>
<svg version="1.1" xmlns="http://www.w3.org/2000/svg" width="1034" height="1030">
<path d="M0 0 C341.22 0 682.44 0 1034 0 C1034 339.9 1034 679.8 1034 1030 C692.78 1030 351.56 1030 0 1030 C0 690.1 0 350.2 0 0 Z " fill="#1A1C2C" transform="translate(0,0)"/>
<path d="M0 0 C137.28 0 274.56 0 416 0 C416 132 416 264 416 400 C326.24 400 236.48 400 144 400 C144 473.92 144 547.84 144 624 C233.76 624 323.52 624 416 624 C416 756 416 888 416 1024 C278.72 1024 141.44 1024 0 1024 C0 886.72 0 749.44 0 608 C15.84 608 31.68 608 48 608 C48 544.64 48 481.28 48 416 C32.16 416 16.32 416 0 416 C0 278.72 0 141.44 0 0 Z " fill="#1A1C2C" transform="translate(615,5)"/>
<path d="M0 0 C341.22 0 682.44 0 1034 0 C1034 339.9 1034 679.8 1034 1030 C692.78 1030 351.56 1030 0 1030 C0 690.1 0 350.2 0 0 Z M7 5 C7 137 7 269 7 405 C96.76 405 186.52 405 279 405 C279 478.92 279 552.84 279 629 C189.24 629 99.48 629 7 629 C7 761 7 893 7 1029 C144.28 1029 281.56 1029 423 1029 C423 891.72 423 754.44 423 613 C407.16 613 391.32 613 375 613 C375 549.64 375 486.28 375 421 C390.84 421 406.68 421 423 421 C423 283.72 423 146.44 423 5 C285.72 5 148.44 5 7 5 Z M615 5 C615 142.28 615 279.56 615 421 C630.84 421 646.68 421 663 421 C663 484.36 663 547.72 663 613 C647.16 613 631.32 613 615 613 C615 750.28 615 887.56 615 1029 C752.28 1029 889.56 1029 1031 1029 C1031 897 1031 765 1031 629 C941.24 629 851.48 629 759 629 C759 555.08 759 481.16 759 405 C848.76 405 938.52 405 1031 405 C1031 273 1031 141 1031 5 C893.72 5 756.44 5 615 5 Z " fill="#000000" transform="translate(0,0)"/>
<path d="M0 0 C5.28 0 10.56 0 16 0 C16 26.4 16 52.8 16 80 C68.8 80 121.6 80 176 80 C176 106.4 176 132.8 176 160 C149.6 160 123.2 160 96 160 C96 186.4 96 212.8 96 240 C122.4 240 148.8 240 176 240 C176 266.4 176 292.8 176 320 C149.6 320 123.2 320 96 320 C96 346.4 96 372.8 96 400 C122.4 400 148.8 400 176 400 C176 426.4 176 452.8 176 480 C149.6 480 123.2 480 96 480 C96 506.4 96 532.8 96 560 C122.4 560 148.8 560 176 560 C176 586.4 176 612.8 176 640 C149.6 640 123.2 640 96 640 C96 666.4 96 692.8 96 720 C122.4 720 148.8 720 176 720 C176 746.4 176 772.8 176 800 C149.6 800 123.2 800 96 800 C96 826.4 96 852.8 96 880 C122.4 880 148.8 880 176 880 C176 906.4 176 932.8 176 960 C123.2 960 70.4 960 16 960 C16 981.12 16 1002.24 16 1024 C10.72 1024 5.44 1024 0 1024 C0 886.72 0 749.44 0 608 C-15.84 608 -31.68 608 -48 608 C-48 544.64 -48 481.28 -48 416 C-32.16 416 -16.32 416 0 416 C0 278.72 0 141.44 0 0 Z " fill="#F4F4F4" transform="translate(423,5)"/>
<path d="M0 0 C31.68 0 63.36 0 96 0 C96 137.28 96 274.56 96 416 C111.84 416 127.68 416 144 416 C144 479.36 144 542.72 144 608 C128.16 608 112.32 608 96 608 C96 745.28 96 882.56 96 1024 C64.32 1024 32.64 1024 0 1024 C0 1002.88 0 981.76 0 960 C26.4 960 52.8 960 80 960 C80 933.6 80 907.2 80 880 C53.6 880 27.2 880 0 880 C0 853.6 0 827.2 0 800 C26.4 800 52.8 800 80 800 C80 773.6 80 747.2 80 720 C53.6 720 27.2 720 0 720 C0 693.6 0 667.2 0 640 C26.4 640 52.8 640 80 640 C80 613.6 80 587.2 80 560 C53.6 560 27.2 560 0 560 C0 533.6 0 507.2 0 480 C26.4 480 52.8 480 80 480 C80 453.6 80 427.2 80 400 C53.6 400 27.2 400 0 400 C0 373.6 0 347.2 0 320 C26.4 320 52.8 320 80 320 C80 293.6 80 267.2 80 240 C53.6 240 27.2 240 0 240 C0 213.6 0 187.2 0 160 C26.4 160 52.8 160 80 160 C80 133.6 80 107.2 80 80 C53.6 80 27.2 80 0 80 C0 53.6 0 27.2 0 0 Z " fill="#F4F4F4" transform="translate(519,5)"/>
<path d="M0 0 C84.48 0 168.96 0 256 0 C256 63.36 256 126.72 256 192 C171.52 192 87.04 192 0 192 C0 128.64 0 65.28 0 0 Z " fill="#FFCD75" transform="translate(775,421)"/>
<path d="M0 0 C84.48 0 168.96 0 256 0 C256 63.36 256 126.72 256 192 C171.52 192 87.04 192 0 192 C0 128.64 0 65.28 0 0 Z " fill="#FFCD75" transform="translate(7,421)"/>
<path d="M0 0 C89.76 0 179.52 0 272 0 C272 5.28 272 10.56 272 16 C187.52 16 103.04 16 16 16 C16 79.36 16 142.72 16 208 C100.48 208 184.96 208 272 208 C272 213.28 272 218.56 272 224 C182.24 224 92.48 224 0 224 C0 150.08 0 76.16 0 0 Z " fill="#333C57" transform="translate(759,405)"/>
<path d="M0 0 C89.76 0 179.52 0 272 0 C272 73.92 272 147.84 272 224 C182.24 224 92.48 224 0 224 C0 218.72 0 213.44 0 208 C84.48 208 168.96 208 256 208 C256 144.64 256 81.28 256 16 C171.52 16 87.04 16 0 16 C0 10.72 0 5.44 0 0 Z " fill="#333C57" transform="translate(7,405)"/>
<path d="M0 0 C341.22 0 682.44 0 1034 0 C1034 339.9 1034 679.8 1034 1030 C1033.67 1030 1033.34 1030 1033 1030 C1033 691.09 1033 352.18 1033 3 C693.76 3 354.52 3 5 3 C5 341.91 5 680.82 5 1030 C3.35 1030 1.7 1030 0 1030 C0 690.1 0 350.2 0 0 Z " fill="#655561" transform="translate(0,0)"/>
<path d="M0 0 C15.84 0 31.68 0 48 0 C48 63.36 48 126.72 48 192 C32.16 192 16.32 192 0 192 C0 128.64 0 65.28 0 0 Z " fill="#FFCD75" transform="translate(615,421)"/>
<path d="M0 0 C15.84 0 31.68 0 48 0 C48 63.36 48 126.72 48 192 C32.16 192 16.32 192 0 192 C0 128.64 0 65.28 0 0 Z " fill="#FFCD75" transform="translate(375,421)"/>
<path d="M0 0 C26.4 0 52.8 0 80 0 C80 26.4 80 52.8 80 80 C53.6 80 27.2 80 0 80 C0 53.6 0 27.2 0 0 Z " fill="#1A1C2C" transform="translate(519,885)"/>
<path d="M0 0 C26.4 0 52.8 0 80 0 C80 26.4 80 52.8 80 80 C53.6 80 27.2 80 0 80 C0 53.6 0 27.2 0 0 Z " fill="#1A1C2C" transform="translate(439,805)"/>
<path d="M0 0 C26.4 0 52.8 0 80 0 C80 26.4 80 52.8 80 80 C53.6 80 27.2 80 0 80 C0 53.6 0 27.2 0 0 Z " fill="#1A1C2C" transform="translate(519,725)"/>
<path d="M0 0 C26.4 0 52.8 0 80 0 C80 26.4 80 52.8 80 80 C53.6 80 27.2 80 0 80 C0 53.6 0 27.2 0 0 Z " fill="#1A1C2C" transform="translate(439,645)"/>
<path d="M0 0 C26.4 0 52.8 0 80 0 C80 26.4 80 52.8 80 80 C53.6 80 27.2 80 0 80 C0 53.6 0 27.2 0 0 Z " fill="#1A1C2C" transform="translate(519,565)"/>
<path d="M0 0 C26.4 0 52.8 0 80 0 C80 26.4 80 52.8 80 80 C53.6 80 27.2 80 0 80 C0 53.6 0 27.2 0 0 Z " fill="#1A1C2C" transform="translate(439,485)"/>
<path d="M0 0 C26.4 0 52.8 0 80 0 C80 26.4 80 52.8 80 80 C53.6 80 27.2 80 0 80 C0 53.6 0 27.2 0 0 Z " fill="#1A1C2C" transform="translate(519,405)"/>
<path d="M0 0 C26.4 0 52.8 0 80 0 C80 26.4 80 52.8 80 80 C53.6 80 27.2 80 0 80 C0 53.6 0 27.2 0 0 Z " fill="#1A1C2C" transform="translate(439,325)"/>
<path d="M0 0 C26.4 0 52.8 0 80 0 C80 26.4 80 52.8 80 80 C53.6 80 27.2 80 0 80 C0 53.6 0 27.2 0 0 Z " fill="#1A1C2C" transform="translate(519,245)"/>
<path d="M0 0 C26.4 0 52.8 0 80 0 C80 26.4 80 52.8 80 80 C53.6 80 27.2 80 0 80 C0 53.6 0 27.2 0 0 Z " fill="#1A1C2C" transform="translate(439,165)"/>
<path d="M0 0 C26.4 0 52.8 0 80 0 C80 26.4 80 52.8 80 80 C53.6 80 27.2 80 0 80 C0 53.6 0 27.2 0 0 Z " fill="#1A1C2C" transform="translate(519,85)"/>
<path d="M0 0 C26.4 0 52.8 0 80 0 C80 26.4 80 52.8 80 80 C53.6 80 27.2 80 0 80 C0 53.6 0 27.2 0 0 Z " fill="#1A1C2C" transform="translate(439,5)"/>
<path d="M0 0 C26.4 0 52.8 0 80 0 C80 21.12 80 42.24 80 64 C53.6 64 27.2 64 0 64 C0 42.88 0 21.76 0 0 Z " fill="#1A1C2C" transform="translate(439,965)"/>
<path d="M0 0 C21.12 0 42.24 0 64 0 C64 73.92 64 147.84 64 224 C42.88 224 21.76 224 0 224 C0 218.72 0 213.44 0 208 C15.84 208 31.68 208 48 208 C48 144.64 48 81.28 48 16 C32.16 16 16.32 16 0 16 C0 10.72 0 5.44 0 0 Z " fill="#333C57" transform="translate(615,405)"/>
<path d="M0 0 C21.12 0 42.24 0 64 0 C64 5.28 64 10.56 64 16 C48.16 16 32.32 16 16 16 C16 79.36 16 142.72 16 208 C31.84 208 47.68 208 64 208 C64 213.28 64 218.56 64 224 C42.88 224 21.76 224 0 224 C0 150.08 0 76.16 0 0 Z " fill="#333C57" transform="translate(359,405)"/>
<path d="M0 0 C5.28 0 10.56 0 16 0 C16 21.12 16 42.24 16 64 C10.72 64 5.44 64 0 64 C0 42.88 0 21.76 0 0 Z " fill="#333C57" transform="translate(967,757)"/>
<path d="M0 0 C15.84 0 31.68 0 48 0 C48 5.28 48 10.56 48 16 C32.16 16 16.32 16 0 16 C0 10.72 0 5.44 0 0 Z " fill="#333C57" transform="translate(647,965)"/>
<path d="M0 0 C15.84 0 31.68 0 48 0 C48 5.28 48 10.56 48 16 C32.16 16 16.32 16 0 16 C0 10.72 0 5.44 0 0 Z " fill="#333C57" transform="translate(263,773)"/>
<path d="M0 0 C15.84 0 31.68 0 48 0 C48 5.28 48 10.56 48 16 C32.16 16 16.32 16 0 16 C0 10.72 0 5.44 0 0 Z " fill="#333C57" transform="translate(311,757)"/>
<path d="M0 0 C15.84 0 31.68 0 48 0 C48 5.28 48 10.56 48 16 C32.16 16 16.32 16 0 16 C0 10.72 0 5.44 0 0 Z " fill="#333C57" transform="translate(87,757)"/>
<path d="M0 0 C15.84 0 31.68 0 48 0 C48 5.28 48 10.56 48 16 C32.16 16 16.32 16 0 16 C0 10.72 0 5.44 0 0 Z " fill="#333C57" transform="translate(711,725)"/>
<path d="M0 0 C15.84 0 31.68 0 48 0 C48 5.28 48 10.56 48 16 C32.16 16 16.32 16 0 16 C0 10.72 0 5.44 0 0 Z " fill="#333C57" transform="translate(263,677)"/>
<path d="M0 0 C10.56 0 21.12 0 32 0 C32 5.28 32 10.56 32 16 C21.44 16 10.88 16 0 16 C0 10.72 0 5.44 0 0 Z " fill="#333C57" transform="translate(391,965)"/>
<path d="M0 0 C10.56 0 21.12 0 32 0 C32 5.28 32 10.56 32 16 C21.44 16 10.88 16 0 16 C0 10.72 0 5.44 0 0 Z " fill="#333C57" transform="translate(839,933)"/>
<path d="M0 0 C10.56 0 21.12 0 32 0 C32 5.28 32 10.56 32 16 C21.44 16 10.88 16 0 16 C0 10.72 0 5.44 0 0 Z " fill="#333C57" transform="translate(87,933)"/>
<path d="M0 0 C10.56 0 21.12 0 32 0 C32 5.28 32 10.56 32 16 C21.44 16 10.88 16 0 16 C0 10.72 0 5.44 0 0 Z " fill="#333C57" transform="translate(871,917)"/>
<path d="M0 0 C10.56 0 21.12 0 32 0 C32 5.28 32 10.56 32 16 C21.44 16 10.88 16 0 16 C0 10.72 0 5.44 0 0 Z " fill="#333C57" transform="translate(295,917)"/>
<path d="M0 0 C10.56 0 21.12 0 32 0 C32 5.28 32 10.56 32 16 C21.44 16 10.88 16 0 16 C0 10.72 0 5.44 0 0 Z " fill="#333C57" transform="translate(151,917)"/>
<path d="M0 0 C10.56 0 21.12 0 32 0 C32 5.28 32 10.56 32 16 C21.44 16 10.88 16 0 16 C0 10.72 0 5.44 0 0 Z " fill="#333C57" transform="translate(183,901)"/>
<path d="M0 0 C5.28 0 10.56 0 16 0 C16 10.56 16 21.12 16 32 C10.72 32 5.44 32 0 32 C0 21.44 0 10.88 0 0 Z " fill="#333C57" transform="translate(23,901)"/>
<path d="M0 0 C5.28 0 10.56 0 16 0 C16 10.56 16 21.12 16 32 C10.72 32 5.44 32 0 32 C0 21.44 0 10.88 0 0 Z " fill="#333C57" transform="translate(39,869)"/>
<path d="M0 0 C10.56 0 21.12 0 32 0 C32 5.28 32 10.56 32 16 C21.44 16 10.88 16 0 16 C0 10.72 0 5.44 0 0 Z " fill="#333C57" transform="translate(823,837)"/>
<path d="M0 0 C5.28 0 10.56 0 16 0 C16 10.56 16 21.12 16 32 C10.72 32 5.44 32 0 32 C0 21.44 0 10.88 0 0 Z " fill="#333C57" transform="translate(903,677)"/>
<path d="M0 0 C10.56 0 21.12 0 32 0 C32 5.28 32 10.56 32 16 C21.44 16 10.88 16 0 16 C0 10.72 0 5.44 0 0 Z " fill="#333C57" transform="translate(391,661)"/>
<path d="M0 0 C10.56 0 21.12 0 32 0 C32 5.28 32 10.56 32 16 C21.44 16 10.88 16 0 16 C0 10.72 0 5.44 0 0 Z " fill="#333C57" transform="translate(343,309)"/>
<path d="M0 0 C10.56 0 21.12 0 32 0 C32 5.28 32 10.56 32 16 C21.44 16 10.88 16 0 16 C0 10.72 0 5.44 0 0 Z " fill="#333C57" transform="translate(263,293)"/>
<path d="M0 0 C10.56 0 21.12 0 32 0 C32 5.28 32 10.56 32 16 C21.44 16 10.88 16 0 16 C0 10.72 0 5.44 0 0 Z " fill="#333C57" transform="translate(343,277)"/>
<path d="M0 0 C5.28 0 10.56 0 16 0 C16 10.56 16 21.12 16 32 C10.72 32 5.44 32 0 32 C0 21.44 0 10.88 0 0 Z " fill="#333C57" transform="translate(935,261)"/>
<path d="M0 0 C10.56 0 21.12 0 32 0 C32 5.28 32 10.56 32 16 C21.44 16 10.88 16 0 16 C0 10.72 0 5.44 0 0 Z " fill="#333C57" transform="translate(39,229)"/>
<path d="M0 0 C10.56 0 21.12 0 32 0 C32 5.28 32 10.56 32 16 C21.44 16 10.88 16 0 16 C0 10.72 0 5.44 0 0 Z " fill="#333C57" transform="translate(791,85)"/>
<path d="M0 0 C5.28 0 10.56 0 16 0 C16 5.28 16 10.56 16 16 C10.72 16 5.44 16 0 16 C0 10.72 0 5.44 0 0 Z " fill="#333C57" transform="translate(759,901)"/>
<path d="M0 0 C5.28 0 10.56 0 16 0 C16 5.28 16 10.56 16 16 C10.72 16 5.44 16 0 16 C0 10.72 0 5.44 0 0 Z " fill="#333C57" transform="translate(279,901)"/>
<path d="M0 0 C5.28 0 10.56 0 16 0 C16 5.28 16 10.56 16 16 C10.72 16 5.44 16 0 16 C0 10.72 0 5.44 0 0 Z " fill="#333C57" transform="translate(775,885)"/>
<path d="M0 0 C5.28 0 10.56 0 16 0 C16 5.28 16 10.56 16 16 C10.72 16 5.44 16 0 16 C0 10.72 0 5.44 0 0 Z " fill="#333C57" transform="translate(263,885)"/>
<path d="M0 0 C5.28 0 10.56 0 16 0 C16 5.28 16 10.56 16 16 C10.72 16 5.44 16 0 16 C0 10.72 0 5.44 0 0 Z " fill="#333C57" transform="translate(791,869)"/>
<path d="M0 0 C5.28 0 10.56 0 16 0 C16 5.28 16 10.56 16 16 C10.72 16 5.44 16 0 16 C0 10.72 0 5.44 0 0 Z " fill="#333C57" transform="translate(247,869)"/>
<path d="M0 0 C5.28 0 10.56 0 16 0 C16 5.28 16 10.56 16 16 C10.72 16 5.44 16 0 16 C0 10.72 0 5.44 0 0 Z " fill="#333C57" transform="translate(807,853)"/>
<path d="M0 0 C5.28 0 10.56 0 16 0 C16 5.28 16 10.56 16 16 C10.72 16 5.44 16 0 16 C0 10.72 0 5.44 0 0 Z " fill="#333C57" transform="translate(55,853)"/>
<path d="M0 0 C5.28 0 10.56 0 16 0 C16 5.28 16 10.56 16 16 C10.72 16 5.44 16 0 16 C0 10.72 0 5.44 0 0 Z " fill="#333C57" transform="translate(951,821)"/>
<path d="M0 0 C5.28 0 10.56 0 16 0 C16 5.28 16 10.56 16 16 C10.72 16 5.44 16 0 16 C0 10.72 0 5.44 0 0 Z " fill="#333C57" transform="translate(615,805)"/>
<path d="M0 0 C5.28 0 10.56 0 16 0 C16 5.28 16 10.56 16 16 C10.72 16 5.44 16 0 16 C0 10.72 0 5.44 0 0 Z " fill="#333C57" transform="translate(679,789)"/>
<path d="M0 0 C5.28 0 10.56 0 16 0 C16 5.28 16 10.56 16 16 C10.72 16 5.44 16 0 16 C0 10.72 0 5.44 0 0 Z " fill="#333C57" transform="translate(247,789)"/>
<path d="M0 0 C5.28 0 10.56 0 16 0 C16 5.28 16 10.56 16 16 C10.72 16 5.44 16 0 16 C0 10.72 0 5.44 0 0 Z " fill="#333C57" transform="translate(775,757)"/>
<path d="M0 0 C5.28 0 10.56 0 16 0 C16 5.28 16 10.56 16 16 C10.72 16 5.44 16 0 16 C0 10.72 0 5.44 0 0 Z " fill="#333C57" transform="translate(151,757)"/>
<path d="M0 0 C5.28 0 10.56 0 16 0 C16 5.28 16 10.56 16 16 C10.72 16 5.44 16 0 16 C0 10.72 0 5.44 0 0 Z " fill="#333C57" transform="translate(759,741)"/>
<path d="M0 0 C5.28 0 10.56 0 16 0 C16 5.28 16 10.56 16 16 C10.72 16 5.44 16 0 16 C0 10.72 0 5.44 0 0 Z " fill="#333C57" transform="translate(871,709)"/>
<path d="M0 0 C5.28 0 10.56 0 16 0 C16 5.28 16 10.56 16 16 C10.72 16 5.44 16 0 16 C0 10.72 0 5.44 0 0 Z " fill="#333C57" transform="translate(935,693)"/>
<path d="M0 0 C5.28 0 10.56 0 16 0 C16 5.28 16 10.56 16 16 C10.72 16 5.44 16 0 16 C0 10.72 0 5.44 0 0 Z " fill="#333C57" transform="translate(247,661)"/>
<path d="M0 0 C5.28 0 10.56 0 16 0 C16 5.28 16 10.56 16 16 C10.72 16 5.44 16 0 16 C0 10.72 0 5.44 0 0 Z " fill="#333C57" transform="translate(71,341)"/>
<path d="M0 0 C5.28 0 10.56 0 16 0 C16 5.28 16 10.56 16 16 C10.72 16 5.44 16 0 16 C0 10.72 0 5.44 0 0 Z " fill="#333C57" transform="translate(135,325)"/>
<path d="M0 0 C5.28 0 10.56 0 16 0 C16 5.28 16 10.56 16 16 C10.72 16 5.44 16 0 16 C0 10.72 0 5.44 0 0 Z " fill="#333C57" transform="translate(887,309)"/>
<path d="M0 0 C5.28 0 10.56 0 16 0 C16 5.28 16 10.56 16 16 C10.72 16 5.44 16 0 16 C0 10.72 0 5.44 0 0 Z " fill="#333C57" transform="translate(855,309)"/>
<path d="M0 0 C5.28 0 10.56 0 16 0 C16 5.28 16 10.56 16 16 C10.72 16 5.44 16 0 16 C0 10.72 0 5.44 0 0 Z " fill="#333C57" transform="translate(391,309)"/>
<path d="M0 0 C5.28 0 10.56 0 16 0 C16 5.28 16 10.56 16 16 C10.72 16 5.44 16 0 16 C0 10.72 0 5.44 0 0 Z " fill="#333C57" transform="translate(311,309)"/>
<path d="M0 0 C5.28 0 10.56 0 16 0 C16 5.28 16 10.56 16 16 C10.72 16 5.44 16 0 16 C0 10.72 0 5.44 0 0 Z " fill="#333C57" transform="translate(103,309)"/>
<path d="M0 0 C5.28 0 10.56 0 16 0 C16 5.28 16 10.56 16 16 C10.72 16 5.44 16 0 16 C0 10.72 0 5.44 0 0 Z " fill="#333C57" transform="translate(615,261)"/>
<path d="M0 0 C5.28 0 10.56 0 16 0 C16 5.28 16 10.56 16 16 C10.72 16 5.44 16 0 16 C0 10.72 0 5.44 0 0 Z " fill="#333C57" transform="translate(391,261)"/>
<path d="M0 0 C5.28 0 10.56 0 16 0 C16 5.28 16 10.56 16 16 C10.72 16 5.44 16 0 16 C0 10.72 0 5.44 0 0 Z " fill="#333C57" transform="translate(807,229)"/>
<path d="M0 0 C5.28 0 10.56 0 16 0 C16 5.28 16 10.56 16 16 C10.72 16 5.44 16 0 16 C0 10.72 0 5.44 0 0 Z " fill="#333C57" transform="translate(855,213)"/>
<path d="M0 0 C5.28 0 10.56 0 16 0 C16 5.28 16 10.56 16 16 C10.72 16 5.44 16 0 16 C0 10.72 0 5.44 0 0 Z " fill="#333C57" transform="translate(775,213)"/>
<path d="M0 0 C5.28 0 10.56 0 16 0 C16 5.28 16 10.56 16 16 C10.72 16 5.44 16 0 16 C0 10.72 0 5.44 0 0 Z " fill="#333C57" transform="translate(839,197)"/>
<path d="M0 0 C5.28 0 10.56 0 16 0 C16 5.28 16 10.56 16 16 C10.72 16 5.44 16 0 16 C0 10.72 0 5.44 0 0 Z " fill="#333C57" transform="translate(151,197)"/>
<path d="M0 0 C5.28 0 10.56 0 16 0 C16 5.28 16 10.56 16 16 C10.72 16 5.44 16 0 16 C0 10.72 0 5.44 0 0 Z " fill="#333C57" transform="translate(119,197)"/>
<path d="M0 0 C5.28 0 10.56 0 16 0 C16 5.28 16 10.56 16 16 C10.72 16 5.44 16 0 16 C0 10.72 0 5.44 0 0 Z " fill="#333C57" transform="translate(823,181)"/>
<path d="M0 0 C5.28 0 10.56 0 16 0 C16 5.28 16 10.56 16 16 C10.72 16 5.44 16 0 16 C0 10.72 0 5.44 0 0 Z " fill="#333C57" transform="translate(631,165)"/>
<path d="M0 0 C5.28 0 10.56 0 16 0 C16 5.28 16 10.56 16 16 C10.72 16 5.44 16 0 16 C0 10.72 0 5.44 0 0 Z " fill="#333C57" transform="translate(247,165)"/>
<path d="M0 0 C5.28 0 10.56 0 16 0 C16 5.28 16 10.56 16 16 C10.72 16 5.44 16 0 16 C0 10.72 0 5.44 0 0 Z " fill="#333C57" transform="translate(167,165)"/>
<path d="M0 0 C5.28 0 10.56 0 16 0 C16 5.28 16 10.56 16 16 C10.72 16 5.44 16 0 16 C0 10.72 0 5.44 0 0 Z " fill="#333C57" transform="translate(663,149)"/>
<path d="M0 0 C5.28 0 10.56 0 16 0 C16 5.28 16 10.56 16 16 C10.72 16 5.44 16 0 16 C0 10.72 0 5.44 0 0 Z " fill="#333C57" transform="translate(919,133)"/>
<path d="M0 0 C5.28 0 10.56 0 16 0 C16 5.28 16 10.56 16 16 C10.72 16 5.44 16 0 16 C0 10.72 0 5.44 0 0 Z " fill="#333C57" transform="translate(679,133)"/>
<path d="M0 0 C5.28 0 10.56 0 16 0 C16 5.28 16 10.56 16 16 C10.72 16 5.44 16 0 16 C0 10.72 0 5.44 0 0 Z " fill="#333C57" transform="translate(375,133)"/>
<path d="M0 0 C5.28 0 10.56 0 16 0 C16 5.28 16 10.56 16 16 C10.72 16 5.44 16 0 16 C0 10.72 0 5.44 0 0 Z " fill="#333C57" transform="translate(231,133)"/>
<path d="M0 0 C5.28 0 10.56 0 16 0 C16 5.28 16 10.56 16 16 C10.72 16 5.44 16 0 16 C0 10.72 0 5.44 0 0 Z " fill="#333C57" transform="translate(151,133)"/>
<path d="M0 0 C5.28 0 10.56 0 16 0 C16 5.28 16 10.56 16 16 C10.72 16 5.44 16 0 16 C0 10.72 0 5.44 0 0 Z " fill="#333C57" transform="translate(695,117)"/>
<path d="M0 0 C5.28 0 10.56 0 16 0 C16 5.28 16 10.56 16 16 C10.72 16 5.44 16 0 16 C0 10.72 0 5.44 0 0 Z " fill="#333C57" transform="translate(327,117)"/>
<path d="M0 0 C5.28 0 10.56 0 16 0 C16 5.28 16 10.56 16 16 C10.72 16 5.44 16 0 16 C0 10.72 0 5.44 0 0 Z " fill="#333C57" transform="translate(711,101)"/>
<path d="M0 0 C5.28 0 10.56 0 16 0 C16 5.28 16 10.56 16 16 C10.72 16 5.44 16 0 16 C0 10.72 0 5.44 0 0 Z " fill="#333C57" transform="translate(759,85)"/>
<path d="M0 0 C5.28 0 10.56 0 16 0 C16 5.28 16 10.56 16 16 C10.72 16 5.44 16 0 16 C0 10.72 0 5.44 0 0 Z " fill="#333C57" transform="translate(727,85)"/>
<path d="M0 0 C5.28 0 10.56 0 16 0 C16 5.28 16 10.56 16 16 C10.72 16 5.44 16 0 16 C0 10.72 0 5.44 0 0 Z " fill="#333C57" transform="translate(119,85)"/>
<path d="M0 0 C5.28 0 10.56 0 16 0 C16 5.28 16 10.56 16 16 C10.72 16 5.44 16 0 16 C0 10.72 0 5.44 0 0 Z " fill="#333C57" transform="translate(775,69)"/>
<path d="M0 0 C5.28 0 10.56 0 16 0 C16 5.28 16 10.56 16 16 C10.72 16 5.44 16 0 16 C0 10.72 0 5.44 0 0 Z " fill="#333C57" transform="translate(135,69)"/>
<path d="M0 0 C5.28 0 10.56 0 16 0 C16 5.28 16 10.56 16 16 C10.72 16 5.44 16 0 16 C0 10.72 0 5.44 0 0 Z " fill="#333C57" transform="translate(615,37)"/>
</svg>
