<?xml version="1.0" standalone="no"?>
<!DOCTYPE svg PUBLIC "-//W3C//DTD SVG 20010904//EN"
 "http://www.w3.org/TR/2001/REC-SVG-20010904/DTD/svg10.dtd">
<svg version="1.0" xmlns="http://www.w3.org/2000/svg"
 width="640.000000pt" height="640.000000pt" viewBox="0 0 640.000000 640.000000"
 preserveAspectRatio="xMidYMid meet">

<g transform="translate(0.000000,640.000000) scale(0.100000,-0.100000)"
fill="#000000" stroke="none">
<path d="M0 5100 l0 -1300 900 0 900 0 0 -600 0 -600 -900 0 -900 0 0 -1300 0
-1300 3200 0 3200 0 0 3200 0 3200 -1300 0 -1300 0 0 -800 0 -800 -600 0 -600
0 0 800 0 800 -1300 0 -1300 0 0 -1300z m3800 -1750 l0 -750 -600 0 -600 0 0
750 0 750 600 0 600 0 0 -750z"/>
</g>
</svg>
